<svg id="Layer_1" data-name="Layer 1" xmlns="http://www.w3.org/2000/svg" xmlns:xlink="http://www.w3.org/1999/xlink" viewBox="0 0 50 50"><defs><style>.cls-1{fill:none;}.cls-2{clip-path:url(#clip-path);}.cls-3{fill:#fff;}.cls-4{fill:#023d58;}.cls-5{fill:#f47a67;}</style><clipPath id="clip-path"><rect class="cls-1" width="50" height="50"/></clipPath></defs><title>logo_boomi1</title><g id="Logos"><g id="Boomi_Icon_Logo_2-Color_Reversed_RGB" data-name="Boomi Icon Logo 2-Color Reversed RGB"><g class="cls-2"><g class="cls-2"><path class="cls-3" d="M48.43,25A23.44,23.44,0,1,1,25,1.57h0A23.42,23.42,0,0,1,48.43,25h0"/><path class="cls-4" d="M26.92,19.71a10.8,10.8,0,0,0-7.45,2.83V8.6A.45.45,0,0,0,19,8.14a.37.37,0,0,0-.25.07l-3.36,1.94a.22.22,0,0,0-.12.21v29.5a.45.45,0,0,0,.44.45H19a.45.45,0,0,0,.45-.45v-2a10.82,10.82,0,0,0,7.47,2.85,10.53,10.53,0,1,0,0-21m0,17.13a6.42,6.42,0,0,1-6.56-6.29,1.82,1.82,0,0,1,0-.33,6.44,6.44,0,0,1,6.24-6.61h.32a6.44,6.44,0,0,1,6.57,6.29v.32a6.43,6.43,0,0,1-6.25,6.61h-.32"/><path class="cls-5" d="M40,17.23a2.59,2.59,0,1,1-2.58-2.59A2.58,2.58,0,0,1,40,17.23h0"/></g></g></g></g></svg>